<?xml version="1.0" standalone="no"?>
<!DOCTYPE svg PUBLIC "-//W3C//DTD SVG 20010904//EN"
 "http://www.w3.org/TR/2001/REC-SVG-20010904/DTD/svg10.dtd">
<svg version="1.0" xmlns="http://www.w3.org/2000/svg"
 width="53.000000pt" height="53.000000pt" viewBox="0 0 53.000000 53.000000"
 preserveAspectRatio="xMidYMid meet">

<g transform="translate(0.000000,53.000000) scale(0.100000,-0.100000)"
fill="#000000" stroke="none">
<path d="M0 265 l0 -265 265 0 265 0 0 265 0 265 -265 0 -265 0 0 -265z m360
136 l95 -49 -98 -48 -97 -49 -97 49 -98 48 95 49 c52 26 97 48 100 48 3 0 48
-22 100 -48z m-120 -183 c21 -8 38 -4 100 26 48 23 78 32 84 26 12 -12 15 -11
-81 -59 l-83 -41 -82 41 c-97 48 -92 45 -84 58 4 7 27 1 64 -16 31 -14 68 -30
82 -35z m99 -58 c57 28 80 36 84 26 3 -8 -25 -27 -79 -54 l-84 -42 -84 42
c-54 27 -82 46 -79 54 4 10 27 2 84 -26 l79 -40 79 40z"/>
<path d="M190 386 l-65 -34 68 -33 67 -33 67 33 68 33 -65 34 c-36 18 -67 33
-70 33 -3 0 -34 -15 -70 -33z"/>
</g>
</svg>
